<svg width="149" height="149" viewBox="0 0 149 149" fill="none" xmlns="http://www.w3.org/2000/svg">
<g filter="url(#filter0_d_5722_68156)">
<rect x="24.5" y="22.5" width="100" height="100" rx="24" fill="white" shape-rendering="crispEdges"/>
<path fill-rule="evenodd" clip-rule="evenodd" d="M91.8915 37.9121L91.7346 38.7088L91.1344 41.6239C90.1748 41.9903 89.3047 42.5099 88.5184 43.1261L85.585 42.1453L84.7969 41.901L84.3883 42.6047L82.3688 45.981L81.9602 46.6848L82.5586 47.208L84.8279 49.1386C84.7459 49.6435 84.6401 50.143 84.6401 50.6735C84.6401 51.2041 84.7459 51.7037 84.8279 52.2086L82.5586 54.1392L81.9602 54.6624L82.3688 55.3661L84.3883 58.7425L84.7969 59.448L85.585 59.2019L88.5184 58.2211C89.3047 58.8373 90.1748 59.3568 91.1344 59.7232L91.7346 62.6383L91.8915 63.4351H97.5667L97.7254 62.6383L98.3238 59.7232C99.2833 59.3568 100.154 58.8373 100.94 58.2211L103.873 59.2019L104.661 59.448L105.072 58.7425L107.089 55.3661L107.5 54.6624L106.9 54.1392L104.63 52.2086C104.714 51.7037 104.818 51.2041 104.818 50.6735C104.818 50.143 104.714 49.6435 104.63 49.1386L106.9 47.208L107.5 46.6848L107.089 45.981L105.072 42.6047L104.661 41.901L103.873 42.1453L100.94 43.1261C100.154 42.5099 99.2833 41.9903 98.3238 41.6239L97.7254 38.7088L97.5667 37.9121H91.8915Z" fill="#DC3545"/>
<path fill-rule="evenodd" clip-rule="evenodd" d="M98.3778 50.6735C98.3778 52.6862 96.7433 54.3197 94.7293 54.3197C92.7153 54.3197 91.0808 52.6862 91.0808 50.6735C91.0808 48.6609 92.7153 47.0275 94.7293 47.0275C96.7433 47.0275 98.3778 48.6609 98.3778 50.6735Z" fill="#DC3545"/>
<circle cx="95.041" cy="50.6816" r="3.73143" fill="white"/>
<path fill-rule="evenodd" clip-rule="evenodd" d="M61.217 61.2896L60.9389 62.7014L59.8753 67.8677C58.1747 68.5171 56.6326 69.438 55.2391 70.53L50.0404 68.7917L48.6438 68.3588L47.9196 69.6059L44.3406 75.5895L43.6165 76.8368L44.6769 77.764L48.6988 81.1855C48.5533 82.0804 48.3658 82.9656 48.3658 83.9058C48.3658 84.846 48.5533 85.7314 48.6988 86.6264L44.6769 90.0479L43.6165 90.9751L44.3406 92.2222L47.9196 98.206L48.6438 99.4562L50.0404 99.0201L55.2391 97.2819C56.6326 98.3739 58.1747 99.2946 59.8753 99.944L60.9389 105.11L61.217 106.522H71.2749L71.5561 105.11L72.6166 99.944C74.3171 99.2946 75.8593 98.3739 77.2527 97.2819L82.4514 99.0201L83.8481 99.4562L84.5755 98.206L88.1512 92.2222L88.8786 90.9751L87.815 90.0479L83.7931 86.6264C83.9418 85.7314 84.1261 84.846 84.1261 83.9058C84.1261 82.9656 83.9418 82.0804 83.7931 81.1855L87.815 77.764L88.8786 76.8368L88.1512 75.5895L84.5755 69.6059L83.8481 68.3588L82.4514 68.7917L77.2527 70.53C75.8593 69.438 74.3171 68.5171 72.6166 67.8677L71.5561 62.7014L71.2749 61.2896H61.217Z" fill="#DC3545"/>
<path fill-rule="evenodd" clip-rule="evenodd" d="M72.7124 83.9058C72.7124 87.4728 69.8156 90.3677 66.2464 90.3677C62.6771 90.3677 59.7803 87.4728 59.7803 83.9058C59.7803 80.3389 62.6771 77.4442 66.2464 77.4442C69.8156 77.4442 72.7124 80.3389 72.7124 83.9058Z" fill="#DC3545"/>
<circle cx="66.7988" cy="83.9206" r="6.61298" fill="white"/>
</g>
<defs>
<filter id="filter0_d_5722_68156" x="0.5" y="0.5" width="148" height="148" filterUnits="userSpaceOnUse" color-interpolation-filters="sRGB">
<feFlood flood-opacity="0" result="BackgroundImageFix"/>
<feColorMatrix in="SourceAlpha" type="matrix" values="0 0 0 0 0 0 0 0 0 0 0 0 0 0 0 0 0 0 127 0" result="hardAlpha"/>
<feOffset dy="2"/>
<feGaussianBlur stdDeviation="12"/>
<feComposite in2="hardAlpha" operator="out"/>
<feColorMatrix type="matrix" values="0 0 0 0 0 0 0 0 0 0 0 0 0 0 0 0 0 0 0.04 0"/>
<feBlend mode="normal" in2="BackgroundImageFix" result="effect1_dropShadow_5722_68156"/>
<feBlend mode="normal" in="SourceGraphic" in2="effect1_dropShadow_5722_68156" result="shape"/>
</filter>
</defs>
</svg>
